HIERARCHY
ROOT Hips
{
	OFFSET -0.179506 -22.333345 2.821913
	CHANNELS 6 Xposition Yposition Zposition Zrotation Yrotation Xrotation 
	JOINT LeftUpLeg
	{
		OFFSET 6.951974 -9.140623 -0.681533
		CHANNELS 3 Zrotation Yrotation Xrotation
		JOINT LeftLeg
		{
			OFFSET 3.427654 -37.519855 -0.449580
			CHANNELS 3 Zrotation Yrotation Xrotation
			JOINT LeftFoot
			{
				OFFSET -1.359570 -39.796059 -4.369333
				CHANNELS 3 Zrotation Yrotation Xrotation
				JOINT LeftToe
				{
					OFFSET 2.635814 -5.579078 11.928840
					CHANNELS 3 Zrotation Yrotation Xrotation
					End Site
					{
						OFFSET 0.000000 0.000000 0.000000
					}
				}
			}
		}
	}
	JOINT RightUpLeg
	{
		OFFSET -6.767048 -9.052170 -0.431982
		CHANNELS 3 Zrotation Yrotation Xrotation
		JOINT RightLeg
		{
			OFFSET -3.829005 -38.256897 -0.885003
			CHANNELS 3 Zrotation Yrotation Xrotation
			JOINT RightFoot
			{
				OFFSET 1.577377 -39.841461 -4.231180
				CHANNELS 3 Zrotation Yrotation Xrotation
				JOINT RightToe
				{
					OFFSET -2.537174 -4.814398 12.334795
					CHANNELS 3 Zrotation Yrotation Xrotation
					End Site
					{
						OFFSET 0.000000 0.000000 0.000000
					}
				}
			}
		}
	}
	JOINT Spine
	{
		OFFSET -0.253288 10.896323 -2.669631
		CHANNELS 3 Zrotation Yrotation Xrotation
		JOINT Spine1
		{
			OFFSET 0.548704 13.518043 0.109247
			CHANNELS 3 Zrotation Yrotation Xrotation
			JOINT Spine2
			{
				OFFSET 0.145701 5.292222 2.542457
				CHANNELS 3 Zrotation Yrotation Xrotation
				JOINT Neck
				{
					OFFSET -0.277840 21.387037 -4.285703
					CHANNELS 3 Zrotation Yrotation Xrotation
					JOINT Head
					{
						OFFSET 0.515184 6.496960 5.134897
						CHANNELS 3 Zrotation Yrotation Xrotation
						End Site
						{
							OFFSET 0.000000 0.000000 0.000000
						}
					}
				}
				JOINT LeftShoulder
				{
					OFFSET 7.884473 12.174932 -3.408961
					CHANNELS 3 Zrotation Yrotation Xrotation
					JOINT LeftArm
					{
						OFFSET 9.097692 3.046888 -0.886815
						CHANNELS 3 Zrotation Yrotation Xrotation
						JOINT LeftForeArm
						{
							OFFSET 25.961220 -1.277207 -2.745643
							CHANNELS 3 Zrotation Yrotation Xrotation
							JOINT LeftHand
							{
								OFFSET 24.923361 0.898606 -0.117091
								CHANNELS 3 Zrotation Yrotation Xrotation
								End Site
								{
									OFFSET 0.000000 0.000000 0.000000
								}
							}
						}
					}
				}
				JOINT RightShoulder
				{
					OFFSET -8.175920 11.883285 -3.861528
					CHANNELS 3 Zrotation Yrotation Xrotation
					JOINT RightArm
					{
						OFFSET -9.601238 3.255117 -0.914307
						CHANNELS 3 Zrotation Yrotation Xrotation
						JOINT RightForeArm
						{
							OFFSET -25.374195 -1.332924 -2.140099
							CHANNELS 3 Zrotation Yrotation Xrotation
							JOINT RightHand
							{
								OFFSET -25.529810 0.777228 -0.555919
								CHANNELS 3 Zrotation Yrotation Xrotation
								End Site
								{
									OFFSET 0.000000 0.000000 0.000000
								}
							}
						}
					}
				}
			}
		}
	}
}
MOTION
Frames: 10
Frame Time: 0.033333
2.484921 1.955734 100.733208 173.775924 -1.461630 91.923350 4.616663 6.681945 3.893658 -3.083696 -4.898537 -7.286417 -2.460366 14.384348 -2.142662 nan nan nan -5.248923 -6.033047 3.242495 2.174817 6.706075 -8.904330 6.303596 -10.528821 8.814713 nan nan nan -0.596746 2.476135 -0.063323 -0.179291 -1.972978 0.383218 -1.612506 1.134972 1.211652 0.385048 -0.011504 14.868637 5.089698 -5.653061 -5.354744 6.968228 9.540177 -7.741827 -3.055764 -4.479320 -8.011572 6.339234 -8.387465 -12.861309 -2.215243 -24.106333 -4.407487 -7.827304 -5.874671 -6.968137 8.634013 3.339408 -12.393794 -6.233736 9.156776 -19.559384 0.421415 14.552496 -10.085818 
2.493768 1.906141 100.708572 173.858206 -1.333012 91.680362 4.961852 6.534060 4.183599 -3.408028 -4.906650 -7.399800 -2.213790 14.540313 -1.920543 nan nan nan -5.067591 -5.982130 3.520162 2.169286 6.987355 -9.032290 5.542880 -11.134015 9.096362 nan nan nan -0.542333 2.560100 0.829345 -0.073237 -2.020131 -0.680917 -1.570949 0.989611 1.313179 0.479760 -0.649779 15.133718 4.881940 -5.149636 -4.862334 7.025892 9.144426 -8.430988 -2.946598 -5.398497 -9.147223 7.164358 -5.583369 -13.753326 -9.843122 -20.121009 -0.500401 -7.974762 -5.975084 -7.717936 7.236363 3.987558 -11.338419 -6.483605 7.339085 -13.034055 10.473218 11.447631 -5.468739 
2.515287 1.898425 100.684517 173.919032 -1.319658 91.671605 5.033047 6.605357 4.163816 -3.451254 -5.082660 -7.376334 -2.261626 14.595573 -1.869973 nan nan nan -4.995005 -5.949731 3.518288 2.136782 7.117210 -9.029984 5.411748 -11.324914 8.956176 nan nan nan -0.610787 2.563265 0.871419 -0.024590 -2.044739 -0.722546 -1.536691 0.994307 1.336722 0.414904 -0.756653 15.025772 4.989836 -5.035783 -4.867964 6.827557 8.948455 -8.413913 -2.457955 -5.179676 -8.975706 6.616696 -5.636495 -13.539504 -8.651586 -20.273974 -1.303317 -7.870462 -5.870963 -7.851314 6.996951 3.941593 -11.287374 -6.062802 7.208830 -13.302073 8.915981 11.616655 -6.704500 
2.525152 1.912634 100.696030 173.944892 -1.222296 91.566820 5.183280 6.842051 4.264942 -3.459454 -5.427309 -7.327892 -2.495619 14.700915 -1.907216 nan nan nan -5.009824 -5.904232 3.756323 2.410204 7.955500 -8.922825 6.665963 -11.167399 3.146668 nan nan nan -0.331643 2.628194 1.146179 -0.252196 -2.153990 -1.123820 -1.446080 1.026022 1.638120 -0.045219 -0.925343 14.768565 5.457566 -4.652825 -4.708304 6.507020 8.564090 -8.593659 -1.870860 -4.795264 -9.182013 6.135720 -5.467787 -13.299283 -8.203940 -20.652946 -1.403772 -7.736166 -5.571514 -8.008734 6.715196 3.435764 -11.252238 -5.895611 7.498421 -13.191966 8.356027 11.985359 -7.337713 
2.514838 2.039284 100.835350 174.010171 -0.954063 91.745913 5.372633 6.529753 4.111924 -3.365679 -4.931731 -7.454237 -2.793898 14.598473 -1.725088 nan nan nan -4.727246 -5.730538 3.494643 2.475899 7.077158 -8.807914 7.331865 -10.719006 3.081146 nan nan nan -0.422656 3.135782 -0.200944 0.461494 -1.897900 -1.315959 -0.721745 1.245729 2.798744 -1.145368 -1.406306 17.103684 5.217006 -5.039966 -5.365421 8.665952 7.370622 -5.414422 -7.974499 -4.502288 -10.230283 8.918593 -5.905603 -13.783045 -7.557319 -20.646071 -2.891927 -10.046453 -5.758089 -7.347314 8.917201 2.436059 -11.878276 -7.434642 7.658566 -12.091409 9.455398 12.272253 -7.309418 
2.550925 2.022260 100.865654 173.879964 -1.108629 92.047215 5.062473 5.533349 4.008567 -3.387772 -3.371872 -7.812775 -2.751464 14.244469 -1.702031 nan nan nan -4.805690 -5.172172 2.961060 2.272527 7.145279 -8.884169 8.510487 -11.219458 2.490489 nan nan nan -0.756667 3.173426 -0.471737 0.502756 -1.572429 -1.687480 -1.299640 1.636208 6.298312 0.116239 2.219054 7.541739 4.195135 -4.970462 -3.376044 9.260466 9.365715 -9.920567 -9.279146 -5.702599 -6.367143 9.341599 -6.669039 -14.217173 -5.832334 -21.878370 -5.872782 -7.139525 -7.893967 -12.275456 7.919718 2.544011 -6.876371 -8.558662 9.136861 -14.520092 9.834876 11.718748 -8.621820 
2.570278 2.054626 100.875366 173.875185 -1.026467 91.980426 5.084505 5.493340 4.168488 -3.297943 -3.254190 -7.882061 -2.702736 14.129921 -1.710803 nan nan nan -4.741879 -5.098368 2.995976 2.311901 7.089951 -8.853839 8.300839 -11.161250 2.393856 nan nan nan -0.642537 3.117582 -0.207397 0.597437 -1.525080 -1.912477 -1.421277 1.576415 6.370359 0.315689 2.410226 7.578977 4.130052 -4.899857 -3.434488 9.452000 9.715526 -9.967145 -9.942035 -5.617049 -5.513282 9.720592 -6.920803 -13.688928 -5.496970 -21.736801 -7.173270 -7.150631 -8.063356 -12.493949 8.336923 2.753849 -6.221126 -9.039367 9.369534 -14.464820 9.661103 11.873835 -9.575607 
2.592310 2.072102 100.871117 173.875280 -0.983404 91.945279 5.095757 5.444543 4.279183 -3.226329 -3.206639 -7.943090 -2.674017 14.053718 -1.618688 nan nan nan -4.683138 -5.067489 2.984239 2.307015 7.056394 -8.768933 8.147770 -11.120826 2.327275 nan nan nan -0.628789 3.087947 -0.042721 0.668116 -1.522242 -1.967556 -1.448221 1.500360 6.298785 0.353784 2.459218 7.754622 4.158493 -4.784780 -3.712730 9.465451 9.916166 -9.936343 -10.186548 -5.513823 -5.022145 9.932872 -7.149109 -13.359853 -4.944043 -21.686325 -7.892301 -7.193145 -8.113512 -12.535505 8.500831 3.046730 -5.945422 -9.118056 9.177081 -14.454231 9.215312 12.038852 -10.112766 
2.604964 2.070405 100.859528 173.883429 -0.955822 91.952181 5.107948 5.407984 4.296689 -3.194836 -3.183677 -7.945634 -2.670979 14.047422 -1.575433 nan nan nan -4.644852 -5.062040 2.912059 2.311884 7.057264 -8.659331 8.109148 -11.063326 2.148687 nan nan nan -0.653318 3.107307 0.026678 0.728215 -1.532737 -1.959237 -1.394732 1.407443 6.238377 0.356691 2.438199 7.816148 4.118690 -4.706354 -3.835681 9.397292 9.983106 -9.893120 -10.276218 -5.471185 -4.958832 10.080115 -7.338977 -13.611950 -4.555107 -21.586301 -8.016973 -7.241932 -8.132877 -12.525178 8.522372 3.141404 -5.712886 -9.105496 9.184541 -14.328771 8.993452 12.104565 -10.438936 
2.617272 2.073226 100.845200 173.895997 -0.953307 91.995809 5.099425 5.411756 4.265234 -3.187147 -3.225515 -7.926155 -2.687567 14.078060 -1.642058 nan nan nan -4.657069 -5.077048 2.827419 2.340107 7.061963 -8.595768 8.101432 -11.001854 1.936776 nan nan nan -0.697948 3.113604 -0.001514 0.783849 -1.571047 -1.909023 -1.356886 1.337396 6.181336 0.394425 2.359536 7.758214 3.974913 -4.675008 -3.770890 9.269704 10.030046 -9.821345 -10.171137 -5.525573 -5.225272 10.118904 -7.451485 -14.252843 -4.850883 -21.157493 -7.631837 -7.262386 -8.153221 -12.439418 8.611684 3.179714 -5.550312 -9.294900 9.479124 -14.244213 9.053679 11.866036 -10.607767 
